# xmcd
#
# Track frame offsets:
#	150
#	12043
#	26003
#	42198
#	50008
#	59195
#	72668
#	98140
#	112818
#	126825
#	150820
#	173760
#	187378
#	200068
#	213498
#	227008
#	240415
#	252938
#
# Disc length: 3534 seconds
#
# Revision: 1
# Processed by: cddbd v1.5.2PL0 Copyright (c) Steve Scherf et al.
# Submitted via: EasyCDDAExtractor 16.0.6.1
#
DISCID=fe0dcc12
DTITLE=Άνευ ερμηνευτού - Ελληνικά παραδ. όργανα 1 Λύρα
DYEAR=1996
DGENRE=Παραδοσιακή
TTITLE0=Σουίτα μικρασιατ. χορών:Ταξίμι ''χιτζάζ'' [Πολίτ. λ. Σ.Σινόπουλος]
TTITLE1=Σουίτα μικρασιαt. χορών:Ζεϊμπέκικος [Πολίτ. λ. Σ.Σινόπουλος]
TTITLE2=Σουίτα μικρασιατ. χορών:Συρτό Αζιζιέ [Πολίτ. λ. Σ.Σινόπουλος]
TTITLE3=Σουίτα μικρασιατ. χορών:Καρσιλαμάς [Πολίτ. λ. Σ.Σινόπουλος]
TTITLE4=Ταξίμι ''κιουρντιλί χιτζαζκιάρ'' [Πολίτικη λύρα Σ. Σινόπουλος]
TTITLE5=Ζεϊμπέκικος ''Όπου δεις δυό κυπαρίσσια'' [Πολίτ. λ. Σ. Σινόπουλος]
TTITLE6=Συρτά ροδινού [Κρητική Λύρα Ζ. Σπυριδάκης]
TTITLE7=Ρεθεμιώτικη σούστα [Κρητική Λύρα Ζ. Σπυριδάκης]
TTITLE8=Σταφιδιανός σκοπός [Κρητική Λύρα Ζ. Σπυριδάκης]
TTITLE9=Μυλοποταμικές κοντυλιές κ γρήγ. πεντοζάλη [Κρητ. λ. Ζ. Σπυριδάκης]
TTITLE10=Καστρινός πηδηχτός χορός [Κρητική Λύρα Ζ. Σπυριδάκης]
TTITLE11=Κότσαρι [Λύρα Πόντου Γ. Αμανατίδης]
TTITLE12=Μοιρολόϊ [Λύρα Πόντου Γ. Αμανατίδης]
TTITLE13=Ομάλ [Λύρα Πόντου Γ. Αμανατίδης]
TTITLE14=Τικ [Λύρα Πόντου Γ. Αμανατίδης]
TTITLE15=Διπάτ [Λύρα Πόντου Γ. Αμανατίδης]
TTITLE16=Τας [Λύρα Πόντου Γ. Αμανατίδης]
TTITLE17=Πυρρίχιος-Σέρα [Λύρα Πόντου Γ. Αμανατίδης]
EXTD=
EXTT0=
EXTT1=
EXTT2=
EXTT3=
EXTT4=
EXTT5=
EXTT6=
EXTT7=
EXTT8=
EXTT9=
EXTT10=
EXTT11=
EXTT12=
EXTT13=
EXTT14=
EXTT15=
EXTT16=
EXTT17=
PLAYORDER=
